<svg width="50" height="51" viewBox="0 0 50 51" fill="none" xmlns="http://www.w3.org/2000/svg">
<mask id="mask0_13_238" style="mask-type:alpha" maskUnits="userSpaceOnUse" x="0" y="0" width="50" height="51">
<rect y="0.5" width="50" height="50" fill="#D9D9D9"/>
</mask>
<g mask="url(#mask0_13_238)">
<path d="M10.4167 44.25C9.27083 44.25 8.28958 43.8424 7.47292 43.0271C6.65764 42.2104 6.25 41.2292 6.25 40.0833V10.9167C6.25 9.77083 6.65764 8.78958 7.47292 7.97292C8.28958 7.15764 9.27083 6.75 10.4167 6.75H39.5833C40.7292 6.75 41.7104 7.15764 42.5271 7.97292C43.3424 8.78958 43.75 9.77083 43.75 10.9167V40.0833C43.75 41.2292 43.3424 42.2104 42.5271 43.0271C41.7104 43.8424 40.7292 44.25 39.5833 44.25H10.4167ZM10.4167 40.0833H17.1875V30.7083H16.6667C16.0764 30.7083 15.5813 30.5083 15.1813 30.1083C14.7826 29.7097 14.5833 29.2153 14.5833 28.625V10.9167H10.4167V40.0833ZM32.8125 40.0833H39.5833V10.9167H35.4167V28.625C35.4167 29.2153 35.2167 29.7097 34.8167 30.1083C34.4181 30.5083 33.9236 30.7083 33.3333 30.7083H32.8125V40.0833ZM20.3125 40.0833H29.6875V30.7083H29.1667C28.5764 30.7083 28.0819 30.5083 27.6833 30.1083C27.2833 29.7097 27.0833 29.2153 27.0833 28.625V10.9167H22.9167V28.625C22.9167 29.2153 22.7174 29.7097 22.3188 30.1083C21.9188 30.5083 21.4236 30.7083 20.8333 30.7083H20.3125V40.0833Z" fill="#1C1B1F"/>
</g>
</svg>
