<svg width="86" height="27" viewBox="0 0 86 27" fill="none" xmlns="http://www.w3.org/2000/svg">
<path d="M0.84 26.284C0.946667 25.964 1.256 25.228 1.768 24.076C2.30133 22.9453 3.00533 21.4307 3.88 19.532C4.776 17.612 5.832 15.34 7.048 12.716C8.264 10.092 9.61867 7.13733 11.112 3.852C11.1973 3.68133 11.2613 3.5 11.304 3.308C11.368 3.116 11.4 2.94533 11.4 2.796C11.4 2.58267 11.336 2.412 11.208 2.284C11.08 2.156 10.8347 2.092 10.472 2.092C9.576 2.092 8.84 2.36933 8.264 2.924C7.70933 3.45733 7.29333 4.11867 7.016 4.908C6.76 5.69733 6.632 6.476 6.632 7.244C6.632 7.436 6.64267 7.66 6.664 7.916C6.68533 8.172 6.71733 8.46 6.76 8.78C6.248 8.78 5.82133 8.63067 5.48 8.332C5.16 8.012 4.91467 7.628 4.744 7.18C4.57333 6.71067 4.488 6.27333 4.488 5.868C4.488 5.18533 4.68 4.524 5.064 3.884C5.46933 3.244 5.992 2.668 6.632 2.156C7.272 1.62267 7.976 1.20667 8.744 0.907999C9.53333 0.609332 10.312 0.459999 11.08 0.459999C11.8693 0.459999 12.5413 0.683999 13.096 1.132C13.6507 1.55867 14.0773 2.348 14.376 3.5C14.6747 4.63067 14.824 6.26267 14.824 8.396C14.824 9.78267 14.7707 11.1907 14.664 12.62C14.5787 14.028 14.4827 15.3507 14.376 16.588C14.2693 17.8253 14.216 18.8813 14.216 19.756C14.6427 18.4973 15.1653 17.164 15.784 15.756C16.424 14.3267 17.1067 12.9187 17.832 11.532C18.5573 10.124 19.272 8.80133 19.976 7.564C20.68 6.32667 21.3093 5.24933 21.864 4.332C22.44 3.39333 22.8773 2.7 23.176 2.252C23.4747 1.78267 23.7413 1.43067 23.976 1.196C24.2107 0.961333 24.5307 0.844 24.936 0.844C25.2347 0.844 25.704 0.961333 26.344 1.196C26.152 1.60133 25.928 2.252 25.672 3.148C25.416 4.02267 25.1387 5.04667 24.84 6.22C24.52 7.5 24.2 8.908 23.88 10.444C23.56 11.9587 23.272 13.4947 23.016 15.052C22.76 16.6093 22.5467 18.092 22.376 19.5C22.2267 20.8867 22.152 22.1133 22.152 23.18C22.152 23.7347 22.1733 24.172 22.216 24.492C22.28 24.812 22.3547 25.0893 22.44 25.324C22.5467 25.58 22.664 25.9 22.792 26.284C21.8747 26.284 21.1707 26.1453 20.68 25.868C20.2107 25.5907 19.8907 25.1427 19.72 24.524C19.5707 23.9267 19.496 23.1267 19.496 22.124C19.496 19.756 19.7627 17.2707 20.296 14.668C20.8507 12.044 21.4907 9.34533 22.216 6.572C21.6187 7.42533 21 8.43867 20.36 9.612C19.72 10.7853 19.0907 12.0227 18.472 13.324C17.8533 14.6253 17.2667 15.916 16.712 17.196C16.1573 18.4547 15.6667 19.628 15.24 20.716C14.8133 21.7827 14.4827 22.6787 14.248 23.404C14.056 23.468 13.9173 23.5107 13.832 23.532C13.768 23.5533 13.6827 23.564 13.576 23.564C12.8293 23.564 12.3493 23.116 12.136 22.22C11.944 21.3027 11.848 20.0547 11.848 18.476C11.848 17.644 11.8587 16.7587 11.88 15.82C11.9013 14.86 11.9333 13.8893 11.976 12.908C12.0187 11.9053 12.0507 10.9133 12.072 9.932C12.0933 8.95067 12.104 8.012 12.104 7.116C12.104 6.796 12.0933 6.476 12.072 6.156C12.072 5.836 12.072 5.52667 12.072 5.228C10.4507 9.004 9.07467 12.236 7.944 14.924C6.83467 17.5907 5.88533 19.7667 5.096 21.452C4.30667 23.116 3.58133 24.332 2.92 25.1C2.25867 25.8893 1.56533 26.284 0.84 26.284ZM28.4008 24.46C27.6754 24.46 27.0781 24.1293 26.6088 23.468C26.1608 22.7853 25.9367 22.0067 25.9367 21.132C25.9367 20.5347 26.0328 19.8307 26.2248 19.02C26.4168 18.2093 26.6621 17.42 26.9608 16.652C27.2808 15.884 27.6008 15.244 27.9208 14.732C28.2621 14.22 28.5714 13.964 28.8488 13.964C28.9981 13.964 29.2221 14.0493 29.5208 14.22C29.8408 14.3693 30.1181 14.5613 30.3528 14.796C30.1181 15.1373 29.8301 15.66 29.4888 16.364C29.1688 17.068 28.8808 17.8253 28.6248 18.636C28.3688 19.4467 28.2408 20.1827 28.2408 20.844C28.2408 20.9293 28.2514 21.132 28.2728 21.452C28.3154 21.772 28.4008 22.0707 28.5288 22.348C28.6568 22.6253 28.8808 22.764 29.2008 22.764C29.5634 22.764 29.9474 22.572 30.3528 22.188C30.7794 21.7827 31.2061 21.2707 31.6328 20.652C32.0808 20.012 32.5074 19.3293 32.9128 18.604C33.3394 17.8787 33.7128 17.1747 34.0328 16.492C34.3741 15.8093 34.6514 15.2333 34.8648 14.764C35.0568 14.7853 35.3021 14.8387 35.6008 14.924C35.9208 15.0093 36.1981 15.1267 36.4328 15.276C36.6674 15.404 36.7848 15.596 36.7848 15.852C36.7848 15.916 36.6781 16.1827 36.4648 16.652C36.2728 17.1 36.0381 17.644 35.7608 18.284C35.5048 18.924 35.2701 19.5853 35.0568 20.268C34.8648 20.9293 34.7688 21.516 34.7688 22.028C34.7688 22.3267 34.8221 22.5933 34.9288 22.828C35.0568 23.0413 35.2914 23.148 35.6328 23.148C36.0808 23.148 36.6141 22.9453 37.2328 22.54C37.8514 22.1347 38.4914 21.548 39.1528 20.78C39.8141 20.012 40.4008 19.0947 40.9128 18.028L41.3928 18.412C40.9234 19.564 40.3154 20.5987 39.5688 21.516C38.8221 22.4333 38.0221 23.148 37.1688 23.66C36.3154 24.1933 35.4834 24.46 34.6728 24.46C34.0541 24.46 33.5848 24.3107 33.2648 24.012C32.9661 23.7347 32.7634 23.372 32.6568 22.924C32.5501 22.4547 32.4861 21.9853 32.4648 21.516C32.4648 21.4093 32.4648 21.3027 32.4648 21.196C32.4648 21.068 32.4648 20.9613 32.4648 20.876C32.1021 21.452 31.7074 22.0173 31.2808 22.572C30.8541 23.1053 30.3954 23.5533 29.9048 23.916C29.4354 24.2787 28.9341 24.46 28.4008 24.46ZM43.8378 25.132C42.7711 25.132 41.9071 24.908 41.2458 24.46C40.6058 24.0333 40.1471 23.4893 39.8697 22.828C39.5924 22.1453 39.4537 21.452 39.4537 20.748C39.4537 20.1293 39.5391 19.6493 39.7097 19.308C39.8804 18.9667 40.0938 18.7213 40.3498 18.572C40.6058 18.4013 40.8404 18.2733 41.0538 18.188C41.2884 18.1027 41.4591 18.0067 41.5658 17.9C42.0991 17.3453 42.6431 16.7053 43.1978 15.98C43.7738 15.2333 44.2644 14.412 44.6698 13.516V13.196C44.6698 12.3427 44.8084 11.7453 45.0858 11.404C45.3844 11.0413 45.7258 10.86 46.1098 10.86C46.3658 10.86 46.5471 10.924 46.6538 11.052C46.7818 11.18 46.8564 11.3293 46.8778 11.5C46.8778 11.628 46.8458 11.7773 46.7818 11.948C46.7391 12.1187 46.7178 12.3533 46.7178 12.652C46.7178 13.292 46.8671 14.028 47.1658 14.86C47.4858 15.6707 47.7951 16.5347 48.0938 17.452C48.4138 18.3693 48.5738 19.308 48.5738 20.268C48.5738 20.524 48.5631 20.7587 48.5417 20.972C48.5204 21.1853 48.4884 21.388 48.4458 21.58C49.1071 21.4093 49.7578 21.0467 50.3978 20.492C51.0378 19.916 51.6458 19.0733 52.2218 17.964L52.6058 18.252C52.2004 19.468 51.6138 20.4493 50.8458 21.196C50.0778 21.9213 49.1818 22.3693 48.1578 22.54C47.8164 23.4147 47.2511 24.0653 46.4618 24.492C45.6938 24.9187 44.8191 25.132 43.8378 25.132ZM43.6138 23.724C44.0404 23.724 44.4351 23.6173 44.7977 23.404C45.1604 23.1907 45.4484 22.8813 45.6618 22.476C44.7871 22.284 43.9978 21.9427 43.2938 21.452C42.5898 20.9613 42.0458 20.46 41.6618 19.948C41.3631 20.012 41.2138 20.3 41.2138 20.812C41.2138 21.516 41.4164 22.1773 41.8218 22.796C42.2271 23.4147 42.8244 23.724 43.6138 23.724ZM45.9178 21.516C45.9604 21.3667 45.9818 21.196 45.9818 21.004C46.0031 20.7907 46.0138 20.6307 46.0138 20.524C45.9924 19.564 45.8644 18.6147 45.6298 17.676C45.3951 16.7373 45.1604 15.7773 44.9258 14.796C44.5418 15.4573 44.0938 16.172 43.5818 16.94C43.0698 17.708 42.5898 18.3267 42.1418 18.796C42.4831 19.372 42.9844 19.916 43.6458 20.428C44.3071 20.94 45.0644 21.3027 45.9178 21.516ZM53.8725 24.46C52.9338 24.46 52.2298 24.1827 51.7605 23.628C51.2912 23.0733 51.0565 22.4013 51.0565 21.612C51.0565 21.1213 51.1418 20.5027 51.3125 19.756C51.4832 19.0093 51.7178 18.2307 52.0165 17.42C52.3365 16.588 52.6992 15.8093 53.1045 15.084C53.5098 14.3587 53.9472 13.772 54.4165 13.324C54.8858 12.8547 55.3552 12.62 55.8245 12.62C56.0805 12.62 56.3045 12.7053 56.4965 12.876C56.6885 13.0253 56.7845 13.2493 56.7845 13.548C56.7845 13.8253 56.6138 14.2413 56.2725 14.796C55.9525 15.3507 55.5685 15.9907 55.1205 16.716C54.6938 17.4413 54.3098 18.1987 53.9685 18.988C53.6485 19.756 53.4885 20.492 53.4885 21.196C53.4885 21.8787 53.6058 22.3373 53.8405 22.572C54.0965 22.7853 54.4592 22.892 54.9285 22.892C55.6538 22.892 56.4432 22.5293 57.2965 21.804C58.1498 21.0787 59.0352 19.8093 59.9525 17.996L60.4325 18.508C59.6858 20.3853 58.7365 21.8467 57.5845 22.892C56.4325 23.9373 55.1952 24.46 53.8725 24.46ZM57.6485 10.028C57.2432 10.028 56.8698 9.932 56.5285 9.74C56.2085 9.52667 56.0485 9.20667 56.0485 8.78C56.0485 8.268 56.3258 7.83067 56.8805 7.468C57.4352 7.10533 58.0112 6.924 58.6085 6.924C58.9925 6.924 59.3125 7.00933 59.5685 7.18C59.8458 7.35067 59.9845 7.66 59.9845 8.108C59.9845 8.556 59.7392 8.99333 59.2485 9.42C58.7578 9.82533 58.2245 10.028 57.6485 10.028ZM62.741 25.292C61.6317 25.292 60.7143 24.94 59.989 24.236C59.285 23.5533 58.933 22.4973 58.933 21.068C58.933 20.0227 59.1357 18.9987 59.541 17.996C59.9463 16.9933 60.4903 16.0973 61.173 15.308C61.8557 14.4973 62.613 13.8573 63.445 13.388C64.2983 12.9187 65.1623 12.684 66.037 12.684C66.933 12.684 67.573 12.908 67.957 13.356C68.3623 13.804 68.565 14.3267 68.565 14.924C68.565 15.5213 68.4157 16.108 68.117 16.684C67.8397 17.2387 67.4557 17.516 66.965 17.516C66.5597 17.516 66.229 17.3133 65.973 16.908C66.1863 16.7587 66.4103 16.4813 66.645 16.076C66.8797 15.6707 66.997 15.148 66.997 14.508C66.997 14.3373 66.9543 14.2093 66.869 14.124C66.7837 14.0173 66.6237 13.964 66.389 13.964C65.8557 13.964 65.2903 14.2093 64.693 14.7C64.117 15.1693 63.573 15.788 63.061 16.556C62.5703 17.3027 62.165 18.1027 61.845 18.956C61.5463 19.788 61.397 20.556 61.397 21.26C61.397 21.8573 61.5463 22.412 61.845 22.924C62.165 23.4147 62.773 23.66 63.669 23.66C64.4797 23.66 65.3223 23.4253 66.197 22.956C67.0717 22.4867 67.893 21.836 68.661 21.004C69.429 20.1507 70.0477 19.1373 70.517 17.964L71.157 18.54C70.645 19.8413 69.9303 21.004 69.013 22.028C68.117 23.0307 67.1143 23.82 66.005 24.396C64.917 24.9933 63.829 25.292 62.741 25.292ZM71.5733 25.004C70.8693 25.004 70.2613 24.7693 69.7492 24.3C69.2159 23.8307 68.9492 23.1267 68.9492 22.188C68.9492 21.4413 69.1199 20.6307 69.4612 19.756C69.8026 18.8813 70.2719 18.0173 70.8693 17.164C71.4666 16.3107 72.1493 15.5427 72.9173 14.86C73.6853 14.156 74.5066 13.5907 75.3813 13.164C76.2559 12.7373 77.1306 12.524 78.0052 12.524C78.9226 12.524 79.7013 12.7587 80.3413 13.228C80.9813 13.6973 81.3013 14.316 81.3013 15.084C81.3013 15.66 81.0986 16.076 80.6933 16.332C80.2879 16.588 79.8079 16.6627 79.2533 16.556C79.2959 16.364 79.3279 16.172 79.3493 15.98C79.3919 15.788 79.4133 15.5853 79.4133 15.372C79.4133 14.9453 79.3279 14.5613 79.1573 14.22C78.9866 13.8787 78.6239 13.708 78.0693 13.708C77.4719 13.708 76.8639 13.9107 76.2453 14.316C75.6266 14.7213 75.0293 15.2547 74.4533 15.916C73.8986 16.556 73.3973 17.2707 72.9493 18.06C72.5013 18.828 72.1493 19.5853 71.8932 20.332C71.6373 21.0787 71.5093 21.7507 71.5093 22.348C71.5093 23.0307 71.7546 23.372 72.2453 23.372C72.7359 23.372 73.2799 23.1373 73.8773 22.668C74.4746 22.1773 75.0719 21.5693 75.6693 20.844C76.2879 20.1187 76.8746 19.3827 77.4293 18.636C77.9839 17.868 78.4639 17.2173 78.8693 16.684C78.9333 16.5773 79.0186 16.524 79.1253 16.524C79.2106 16.5453 79.3706 16.5987 79.6053 16.684C79.8613 16.748 80.0959 16.8547 80.3093 17.004C80.5226 17.1533 80.6293 17.3453 80.6293 17.58C80.6293 17.7933 80.5333 18.0707 80.3413 18.412C80.1706 18.732 79.9573 19.0947 79.7013 19.5C79.4666 19.884 79.2533 20.2787 79.0613 20.684C78.8906 21.068 78.8053 21.4413 78.8053 21.804C78.8053 22.0813 78.8799 22.348 79.0293 22.604C79.1786 22.8387 79.4239 22.956 79.7653 22.956C80.2773 22.956 80.9919 22.5827 81.9093 21.836C82.8479 21.068 83.7973 19.7773 84.7573 17.964L85.3653 18.572C84.8533 19.724 84.2346 20.748 83.5093 21.644C82.8053 22.5187 82.0586 23.2013 81.2693 23.692C80.4799 24.204 79.6799 24.46 78.8693 24.46C77.9946 24.46 77.3439 24.1827 76.9173 23.628C76.4906 23.0733 76.2559 22.476 76.2133 21.836C76.2133 21.7933 76.2133 21.7613 76.2133 21.74C76.2133 21.7187 76.2133 21.6973 76.2133 21.676C75.3599 22.7 74.5706 23.5107 73.8453 24.108C73.1413 24.7053 72.3839 25.004 71.5733 25.004Z" fill="#AA1F23"/>
</svg>
